<?xml version="1.0" standalone="no"?>
<!DOCTYPE svg PUBLIC "-//W3C//DTD SVG 20010904//EN"
 "http://www.w3.org/TR/2001/REC-SVG-20010904/DTD/svg10.dtd">
<svg version="1.0" xmlns="http://www.w3.org/2000/svg"
 width="16.000000pt" height="16.000000pt" viewBox="0 0 16.000000 16.000000"
 preserveAspectRatio="xMidYMid meet">
<metadata>
Created by potrace 1.11, written by Peter Selinger 2001-2013
</metadata>
<g transform="translate(0.000000,16.000000) scale(0.016162,-0.016162)"
fill="#000000" stroke="none">
<path d="M724 898 c-32 -22 -61 -54 -85 -93 -36 -60 -65 -132 -56 -141 2 -2
17 0 33 6 16 6 25 7 19 2 -5 -5 -26 -15 -46 -21 -67 -21 -153 -101 -109 -101
6 0 10 5 10 10 0 6 4 10 9 10 5 0 7 -9 4 -20 -4 -15 -2 -19 10 -14 11 4 16 -1
19 -17 3 -22 3 -23 22 -3 25 25 68 54 81 54 6 0 -4 -9 -22 -20 -29 -17 -31
-22 -23 -49 19 -66 61 -98 141 -108 102 -12 194 80 243 246 38 129 3 238 -88
276 -58 25 -108 19 -162 -17z m149 -99 c16 -19 18 -34 14 -79 -6 -64 -46 -162
-82 -198 l-25 -25 4 44 c6 72 -25 116 -90 124 -42 6 -59 15 -26 15 16 0 27 12
42 44 44 97 117 131 163 75z m-185 -231 c5 -7 12 -22 14 -33 2 -12 17 -25 38
-32 19 -7 27 -12 18 -12 -32 -2 -64 17 -78 45 -8 16 -19 32 -25 36 -6 5 -3 8
6 8 9 0 21 -6 27 -12z"/>
<path d="M391 478 c-19 -29 -34 -58 -34 -65 0 -7 -4 -13 -9 -13 -13 0 -10 12
12 47 21 36 18 41 -25 38 -117 -6 -260 -85 -311 -170 -23 -40 -26 -54 -21 -97
7 -56 41 -108 90 -138 42 -26 152 -22 229 9 133 52 211 137 211 230 1 47 -22
101 -43 101 -18 0 -50 -59 -50 -93 0 -23 -9 -46 -25 -65 -33 -40 -144 -92
-209 -99 -49 -5 -57 -3 -80 20 -37 37 -33 70 12 115 34 34 157 92 195 92 8 0
12 -20 12 -60 0 -42 5 -64 17 -76 15 -15 18 -15 42 9 18 18 25 35 24 59 -1 22
9 50 28 78 16 25 29 55 29 68 1 25 0 26 -26 11 -19 -10 -20 -9 -8 13 12 22 11
23 -8 5 -20 -17 -20 -17 -16 8 3 14 4 25 2 25 -3 0 -20 -23 -38 -52z"/>
<path d="M579 380 c-19 -23 -33 -48 -31 -56 2 -8 -1 -30 -7 -49 -5 -19 -7 -35
-5 -35 29 0 174 116 174 139 0 3 -15 11 -32 17 -18 6 -40 14 -49 18 -12 5 -26
-5 -50 -34z"/>
</g>
</svg>
